<svg width="30" height="24" viewBox="0 0 30 24" fill="none" xmlns="http://www.w3.org/2000/svg">
<path d="M13.3973 23.1032L29.2073 5.22493C29.4586 4.94072 29.658 4.60331 29.794 4.23197C29.93 3.86063 30 3.46263 30 3.06069C30 2.65876 29.93 2.26076 29.794 1.88942C29.658 1.51808 29.4586 1.18067 29.2073 0.896456C28.9559 0.612244 28.6576 0.386795 28.3292 0.232981C28.0008 0.0791668 27.6489 -2.99465e-09 27.2934 0C26.938 2.99466e-09 26.5861 0.0791668 26.2577 0.232981C25.9293 0.386795 25.631 0.612244 25.3796 0.896456L11.4837 16.6111L4.62037 8.84975C4.11279 8.27576 3.42437 7.95329 2.70655 7.95329C1.98873 7.95329 1.30031 8.27576 0.79273 8.84975C0.285154 9.42374 0 10.2022 0 11.014C0 11.8257 0.285154 12.6042 0.79273 13.1782L9.56965 23.1036C9.82071 23.3881 10.119 23.6138 10.4474 23.7676C10.7758 23.9215 11.1278 24.0004 11.4833 24C11.8388 24.0003 12.1909 23.9213 12.5194 23.7674C12.8478 23.6135 13.1462 23.3877 13.3973 23.1032Z" fill="#259F4D"/>
</svg>
